<?xml version="1.0" encoding="UTF-8"?>
<svg version="1.1" xmlns="http://www.w3.org/2000/svg" width="703" height="960">
<path d="M0 0 C0.94697754 -0.00067474 1.89395508 -0.00134949 2.86962891 -0.00204468 C63.49050966 0.06621633 136.2968924 14.00430508 181.62109375 57.4453125 C197.08420106 73.19355512 203.63186664 93.96581253 203.62426758 115.72192383 C203.40093251 128.24433538 200.42446143 140.27156397 197.4375 152.375 C181.96451844 215.25608845 185.69765628 273.36943257 217.375 330.25 C217.87402832 331.1560498 218.37305664 332.06209961 218.88720703 332.99560547 C230.08233771 353.29992471 242.30363126 372.62569621 255.92333984 391.38232422 C286.99364158 434.18315066 295.86465032 483.18128512 295.6875 535.3125 C295.68476578 537.00069351 295.68476578 537.00069351 295.68197632 538.72299194 C295.62618631 559.35784478 294.63588198 579.7427997 292.375 600.25 C292.28778687 601.04990356 292.20057373 601.84980713 292.11071777 602.6739502 C286.3407933 655.21472177 275.00537569 706.19824649 252.375 754.25 C251.90336426 755.25901367 251.43172852 756.26802734 250.94580078 757.30761719 C240.75682944 778.92769658 228.33030034 798.62254773 213.375 817.25 C212.58609375 818.24 211.7971875 819.23 210.984375 820.25 C208.80941469 822.9413178 206.59663142 825.59713336 204.375 828.25 C203.57964844 829.23097656 202.78429687 830.21195313 201.96484375 831.22265625 C195.35578917 839.26367266 188.148675 846.69061939 180.8125 854.0625 C180.32980652 854.55036987 179.84711304 855.03823975 179.34979248 855.54089355 C173.50295705 861.43710811 167.47644906 866.95220663 160.98339844 872.13623047 C158.50646273 874.14346646 156.13258716 876.22398009 153.76953125 878.36328125 C149.37795444 882.30468977 144.79032857 885.90957483 140.0625 889.4375 C139.20003662 890.08114502 138.33757324 890.72479004 137.44897461 891.38793945 C68.42063252 942.35606757 -12.90489401 966.25652381 -98.24804688 953.77734375 C-135.75335432 947.92052882 -172.40163725 937.88216017 -206.625 921.25 C-207.51864258 920.81880859 -208.41228516 920.38761719 -209.33300781 919.94335938 C-229.77423286 909.97585585 -249.04115483 897.69471576 -266.625 883.25 C-267.41414795 882.61094727 -267.41414795 882.61094727 -268.21923828 881.95898438 C-282.65144121 870.22300059 -296.35182341 857.07362545 -307.625 842.25 C-308.64737411 840.94317779 -309.67090712 839.63726178 -310.6953125 838.33203125 C-317.7817487 829.24938658 -324.4643107 819.98531262 -330.625 810.25 C-330.98480957 809.68200684 -331.34461914 809.11401367 -331.71533203 808.52880859 C-334.45614946 804.16176448 -337.06573458 799.72554346 -339.625 795.25 C-340.10308105 794.4142041 -340.58116211 793.5784082 -341.07373047 792.71728516 C-383.22243066 718.38182117 -401.83063809 633.78886955 -401.875 548.8125 C-401.87567474 547.64259521 -401.87634949 546.47269043 -401.87704468 545.26733398 C-401.85989998 526.46136422 -401.16997261 507.96418294 -398.875 489.29931641 C-398.61561675 487.17308298 -398.3674631 485.04574712 -398.12109375 482.91796875 C-390.38686227 416.73532382 -373.58154829 352.06660113 -351.625 289.25 C-351.25888611 288.19869904 -351.25888611 288.19869904 -350.88537598 287.12615967 C-325.23239099 213.52566761 -291.36865731 139.84456988 -236.625 83.25 C-236.14369629 82.75209961 -235.66239258 82.25419922 -235.16650391 81.74121094 C-229.88044504 76.30206992 -224.46125678 71.09428575 -218.625 66.25 C-218.1084082 65.81961426 -217.59181641 65.38922852 -217.05957031 64.94580078 C-157.59828507 15.65069261 -75.70914882 0.04881579 0 0 Z " fill="#575757" transform="translate(407.625,-0.25)"/>
</svg>
